<?xml version="1.0" encoding="UTF-8"?>
<svg version="1.1" xmlns="http://www.w3.org/2000/svg" width="240" height="240">
<path d="M0 0 C79.2 0 158.4 0 240 0 C240 79.2 240 158.4 240 240 C160.8 240 81.6 240 0 240 C0 160.8 0 81.6 0 0 Z " fill="#FEFEFF" transform="translate(0,0)"/>
<path d="M0 0 C3.26966711 0.83642647 3.49002125 1.51192781 5.1875 4.3125 C5.6 5.04339844 6.0125 5.77429688 6.4375 6.52734375 C8.83183078 10.66504663 11.99988453 13.99988453 15.375 17.375 C17.96150195 19.96150195 19.4723273 21.99587345 20.5625 25.5 C21.80693121 29.02588843 23.52698516 31.64927601 25.6875 34.6875 C26.3475 35.6775 27.0075 36.6675 27.6875 37.6875 C28.3475 37.6875 29.0075 37.6875 29.6875 37.6875 C31.10150565 35.79867083 31.10150565 35.79867083 32.5 33.4375 C36.87941194 26.73086433 36.87941194 26.73086433 40.6875 24.6875 C44.99104194 24.26558412 46.70265078 24.98533898 50.21875 27.4921875 C54.9903523 31.54804946 58.25548881 35.13540144 60.734375 40.859375 C64.17353886 47.45580405 72.5952445 51.43957205 78.6015625 55.44140625 C81.62936538 57.64518683 84.09858036 59.99106708 86.6875 62.6875 C90.81561445 66.5185153 94.83694481 69.80748285 99.6875 72.6875 C99.6875 73.3475 99.6875 74.0075 99.6875 74.6875 C94.4924374 74.07631616 90.56594597 71.96740803 87.20703125 67.890625 C86.68496094 67.22546875 86.16289062 66.5603125 85.625 65.875 C82.58742532 62.21778702 79.56653708 60.4073285 75.3125 58.3125 C68.56005039 54.94798464 64.28600449 50.59307295 59.6875 44.6875 C59.089375 45.47125 58.49125 46.255 57.875 47.0625 C55.6875 49.6875 55.6875 49.6875 52.6875 51.6875 C51.6975 51.6875 50.7075 51.6875 49.6875 51.6875 C50.0175 50.8625 50.3475 50.0375 50.6875 49.1875 C51.91657649 44.8857323 52.18394339 42.15549051 51.6875 37.6875 C49.27042004 34.27515183 47.87722386 32.91531946 43.75 32.125 C39.85819909 32.83982057 37.70935933 34.14639102 34.6875 36.6875 C33.27559436 39.29187233 33.27559436 39.29187233 32.6875 41.6875 C33.11160156 42.14898437 33.53570312 42.61046875 33.97265625 43.0859375 C37.38032717 46.87556714 40.27243023 50.58820938 42.9375 54.9375 C46.28739583 59.90171215 49.5195136 61.18938084 55.15234375 62.82421875 C58.77715944 64.05855506 60.38836963 65.67484642 62.6875 68.6875 C62.6875 69.3475 62.6875 70.0075 62.6875 70.6875 C59.98069668 69.65254579 57.43521688 68.552949 54.875 67.1875 C51.68253294 65.51309033 51.68253294 65.51309033 47.875 65.02734375 C42.80301494 63.80309154 40.5541178 60.78274033 37.5 56.75 C33.39985076 51.49518031 30.2084447 47.86114823 23.6875 45.6875 C23.605 44.615 23.5225 43.5425 23.4375 42.4375 C22.61500128 38.32500639 21.74336492 37.3613818 18.6875 34.6875 C18.3575 33.6975 18.0275 32.7075 17.6875 31.6875 C17.64753906 32.32816406 17.60757813 32.96882813 17.56640625 33.62890625 C17.05218365 37.88870085 16.59271402 40.74587884 13.55078125 43.91015625 C11.31809635 45.61709117 9.07401222 47.20452327 6.6875 48.6875 C6.0275 48.0275 5.3675 47.3675 4.6875 46.6875 C6.21744792 45.45052083 7.74739583 44.21354167 9.27734375 42.9765625 C11.69422871 40.76722168 11.70101378 39.51355829 11.9609375 36.16796875 C12.00086772 34.73713582 12.0344639 33.30611539 12.0625 31.875 C12.09988281 31.16279297 12.13726562 30.45058594 12.17578125 29.71679688 C12.24175841 25.754502 11.94021142 23.99007185 9.37109375 20.9140625 C8.48550781 20.17929688 7.59992188 19.44453125 6.6875 18.6875 C5.56707799 17.43097467 4.46018505 16.16207995 3.375 14.875 C2.86324219 14.27042969 2.35148437 13.66585937 1.82421875 13.04296875 C1.44910156 12.59566406 1.07398437 12.14835937 0.6875 11.6875 C-0.09625 12.244375 -0.88 12.80125 -1.6875 13.375 C-4.48709862 15.26806192 -7.37792619 16.69478502 -10.4375 18.125 C-16.39198967 21.04860079 -19.15644266 24.39899943 -21.3125 30.6875 C-20.36375 30.97625 -19.415 31.265 -18.4375 31.5625 C-15.3125 32.6875 -15.3125 32.6875 -13.3125 34.6875 C-12.8984375 37.5078125 -12.8984375 37.5078125 -12.6875 40.8125 C-12.57535156 42.45605469 -12.57535156 42.45605469 -12.4609375 44.1328125 C-12.41195312 44.97585937 -12.36296875 45.81890625 -12.3125 46.6875 C-14.3125 45.6875 -14.3125 45.6875 -15.3125 42.6875 C-23.64281955 36.86899436 -35.91050054 30.33071746 -46.3125 31.6875 C-49.37974732 32.34043691 -49.37974732 32.34043691 -50.3515625 34.49609375 C-50.66867188 35.21925781 -50.98578125 35.94242188 -51.3125 36.6875 C-58.5077228 49.75795867 -72.64357637 61.08614582 -85.3125 68.6875 C-85.9725 68.6875 -86.6325 68.6875 -87.3125 68.6875 C-87.6425 69.6775 -87.9725 70.6675 -88.3125 71.6875 C-90.08984375 73.51171875 -90.08984375 73.51171875 -92.25 75.375 C-93.31541016 76.30892578 -93.31541016 76.30892578 -94.40234375 77.26171875 C-96.3125 78.6875 -96.3125 78.6875 -98.3125 78.6875 C-98.09809979 74.95559631 -97.42249758 73.79406015 -94.6875 71.14453125 C-93.5704655 70.25294864 -92.44493263 69.37194149 -91.3125 68.5 C-86.26625748 64.43596274 -81.94154019 60.21293026 -77.6953125 55.30078125 C-74.84072848 52.17009812 -71.80701641 49.30084771 -68.6875 46.4375 C-68.12683838 45.92227783 -67.56617676 45.40705566 -66.98852539 44.8762207 C-64.14889345 42.29057036 -61.26248069 39.82157074 -58.25 37.4375 C-55.7097909 35.35067785 -54.60918959 33.45055465 -53.3125 30.4375 C-52.40234375 28.359375 -52.40234375 28.359375 -51.3125 26.6875 C-48.98239091 26.00965008 -46.64890176 25.34333207 -44.3125 24.6875 C-42.82260682 22.70237472 -41.69718077 20.64278561 -40.51171875 18.46484375 C-39.3125 16.6875 -39.3125 16.6875 -36.5 15.6875 C-35.778125 15.6875 -35.05625 15.6875 -34.3125 15.6875 C-32.3325 17.9975 -30.3525 20.3075 -28.3125 22.6875 C-22.38442122 19.72346061 -14.04156034 13.88664655 -11.4375 7.5625 C-9.74977958 4.74963264 -7.35335503 4.6377672 -4.3125 3.6875 C-2.3125 0.6875 -2.3125 0.6875 0 0 Z " fill="#41B9FF" transform="translate(119.3125,75.3125)"/>
<path d="M0 0 C0.66 0.33 1.32 0.66 2 1 C2 1.66 2 2.32 2 3 C0.03125 4.7265625 0.03125 4.7265625 -2.5 6.625 C-3.3353125 7.25664063 -4.170625 7.88828125 -5.03125 8.5390625 C-5.6809375 9.02117187 -6.330625 9.50328125 -7 10 C-7.66 9.34 -8.32 8.68 -9 8 C-8.071875 7.236875 -7.14375 6.47375 -6.1875 5.6875 C-4.01723899 3.88151448 -1.94431935 2.0523371 0 0 Z " fill="#4FBEFF" transform="translate(133,114)"/>
</svg>
